<svg xmlns="http://www.w3.org/2000/svg" version="1.1" xmlns:xlink="http://www.w3.org/1999/xlink" xmlns:svgjs="http://svgjs.dev/svgjs" width="1500" height="1500" viewBox="0 0 1500 1500"><rect width="1500" height="1500" fill="#000000"></rect><g transform="matrix(0.6666666666666666,0,0,0.6666666666666666,249.39393939393943,630.4755507088767)"><svg viewBox="0 0 396 92" data-background-color="#0b022d" preserveAspectRatio="xMidYMid meet" height="348" width="1500" xmlns="http://www.w3.org/2000/svg" xmlns:xlink="http://www.w3.org/1999/xlink"><g id="tight-bounds" transform="matrix(1,0,0,1,0.2400000000000091,7.4094925559114415)"><svg viewBox="0 0 395.52 84.38378344268968" height="84.38378344268968" width="395.52"><g><svg viewBox="0 0 649.4197772447956 138.55303864892952" height="84.38378344268968" width="395.52"><g><rect width="7.826001664251492" height="118.0049185103171" x="225.5868602291004" y="10.27406006930621" fill="#ffffff" opacity="1" stroke-width="0" stroke="transparent" fill-opacity="1" class="rect-yte-0" data-fill-palette-color="primary" rx="1%" id="yte-0" data-palette-color="#f7fff7"></rect></g><g transform="matrix(1,0,0,1,253.8997772447956,10.567604642714954)"><svg viewBox="0 0 395.52 117.4178293634996" height="117.4178293634996" width="395.52"><g id="textblocktransform"><svg viewBox="0 0 395.52 117.4178293634996" height="117.4178293634996" width="395.52" id="textblock"><g><svg viewBox="0 0 395.52 86.78101692439593" height="86.78101692439593" width="395.52"><g transform="matrix(1,0,0,1,0,0)"><svg width="395.52" viewBox="0.85 -38.7 226.49663574218752 49.7" height="86.78101692439593" data-palette-color="#f7fff7"><g transform="matrix(1,0,0,1,0,0)"><g><svg width="19.344423828125" viewBox="3.16 -36.36 81.46000000000001 36.36" height="8.635" data-palette-color="#f7fff7" id="scriptelement" x="208.0022119140625" y="-38.7"><path d="M3.16-36.36L10.85-36.36 10.85 0 3.16 0 3.16-36.36ZM39.95-36.36L47.6-36.36 47.6 0 40.96 0 25.14-22.89 24.87-22.89 24.87 0 17.19 0 17.19-36.36 23.93-36.36 39.63-13.49 39.95-13.49 39.95-36.36ZM66.83 0L66.83 0 53.94 0 53.94-36.36 66.93-36.36Q72.42-36.36 76.38-34.19 80.34-32.01 82.48-27.95 84.62-23.88 84.62-18.22L84.62-18.22Q84.62-12.54 82.48-8.45 80.34-4.37 76.35-2.18 72.37 0 66.83 0ZM61.62-29.78L61.62-6.59 66.51-6.59Q69.92-6.59 72.25-7.8 74.59-9.02 75.77-11.59 76.95-14.15 76.95-18.22L76.95-18.22Q76.95-22.25 75.77-24.8 74.59-27.36 72.26-28.57 69.93-29.78 66.53-29.78L66.53-29.78 61.62-29.78Z" opacity="1" transform="matrix(1,0,0,1,0,0)" fill="#ffffff" class="undefined-123" data-fill-palette-color="primary" id="tk-123"></path></svg></g></g><path d="M29.9-15.5L32.05-6.25 32.6-6.25 34.95-14.85 39.75-34.8 45.4-33.9 39.95-14.05 36.6-0.4 27.45 0.25 24.6-13.1 22.9-19.7 21.4-14.05 18.05-0.4 9.05 0.25 6.05-13.1 0.85-33.55 7.35-34.8 11.4-15.5 13.65-6.25 14.2-6.25 16.85-15.5 20.5-29 19.35-33.55 25.95-34.8 29.9-15.5ZM63.75-12.65Q63.75-16.1 63.15-17.25 62.55-18.4 60.35-18.4 58.15-18.4 55.35-16.65L55.35-16.65 55.35-13 55.9-1.25 49.15 0 49.75-12.15 49.15-37.45 56-38.7 55.35-25.75 55.35-19.9Q56.1-20.9 57.05-21.85 58-22.8 60-24 62-25.2 64.27-25.2 66.55-25.2 68.1-23.43 69.65-21.65 69.65-18.6L69.65-18.6 69.35-13 69.9-1 63.15 0.25 63.75-12.65ZM80.4 0Q77.45 0 75.57-1.88 73.7-3.75 73.7-6.93 73.7-10.1 76.59-12.43 79.5-14.75 83.65-14.75L83.65-14.75 87.05-14.75 87.05-15.6Q87.05-18.05 86.05-18.95 85.05-19.85 82.3-19.85L82.3-19.85Q81.15-19.85 79.57-19.38 78-18.9 76.05-17.9L76.05-17.9 74.59-21.85Q76.75-23.35 79.82-24.55 82.9-25.75 84.9-25.75L84.9-25.75Q92.75-25.75 92.75-18.15L92.75-18.15 92.75-8.35Q92.75-5.55 94.5-2.1L94.5-2.1 89.2 0.15Q87.95-2.25 87.34-4.15L87.34-4.15Q84.59 0 80.4 0L80.4 0ZM82.5-5.1L82.5-5.1Q84.5-5.1 87.05-7.15L87.05-7.15 87.05-10.5Q84.4-11.1 82.75-11.1L82.75-11.1Q79.59-11.1 79.59-8.3L79.59-8.3Q79.59-6.85 80.4-5.98 81.2-5.1 82.5-5.1ZM97.89-24.2L100.79-24.2 100.79-29.65 107.54-30.95 106.89-24.2 112.94-24.2 112.39-20.1 106.69-20.1 106.44-9.65Q106.44-7.3 106.89-6.53 107.34-5.75 108.54-5.75 109.74-5.75 111.74-6.3L111.74-6.3 112.04-2.75Q108.74 0 106.24 0 103.74 0 102.14-1.83 100.54-3.65 100.54-6.6L100.54-6.6 100.84-12.2 100.79-20.1 97.34-20.1 97.89-24.2ZM117.69-34.5L128.54-34.5Q133.34-34.5 136.19-31.78 139.04-29.05 139.04-24.3 139.04-19.55 135.44-16.18 131.84-12.8 126.64-12.8L126.64-12.8 123.79-12.8 124.39 0 117.69 0 118.29-12.15 117.69-34.5ZM126.74-29.45L126.74-29.45 124.29-29.45 123.94-17.65 127.34-17.65Q129.84-17.65 131.22-19.3 132.59-20.95 132.59-24L132.59-24Q132.59-29.45 126.74-29.45ZM142.04-37.45L148.89-38.7 148.24-13 148.79-1.25 142.04 0 142.64-12.15 142.04-37.45ZM159.69 0Q156.74 0 154.86-1.88 152.99-3.75 152.99-6.93 152.99-10.1 155.89-12.43 158.79-14.75 162.94-14.75L162.94-14.75 166.34-14.75 166.34-15.6Q166.34-18.05 165.34-18.95 164.34-19.85 161.59-19.85L161.59-19.85Q160.44-19.85 158.86-19.38 157.29-18.9 155.34-17.9L155.34-17.9 153.89-21.85Q156.04-23.35 159.11-24.55 162.19-25.75 164.19-25.75L164.19-25.75Q172.04-25.75 172.04-18.15L172.04-18.15 172.04-8.35Q172.04-5.55 173.79-2.1L173.79-2.1 168.49 0.15Q167.24-2.25 166.64-4.15L166.64-4.15Q163.89 0 159.69 0L159.69 0ZM161.79-5.1L161.79-5.1Q163.79-5.1 166.34-7.15L166.34-7.15 166.34-10.5Q163.69-11.1 162.04-11.1L162.04-11.1Q158.89-11.1 158.89-8.3L158.89-8.3Q158.89-6.85 159.69-5.98 160.49-5.1 161.79-5.1ZM185.28 11L178.83 9.65 183.98-1.9 180.28-12 175.23-24.15 181.88-25.4 185.08-14.75 186.73-9.7 187.38-9.7 188.58-13.35 192.18-25.45 198.33-24.7 189.48-1.45 185.28 11Z" opacity="1" transform="matrix(1,0,0,1,0,0)" fill="#ffffff" class="wordmark-text-0" data-fill-palette-color="primary" id="text-0"></path></svg></g></svg></g><g transform="matrix(1,0,0,1,0,107.26793227583963)"><svg viewBox="0 0 127.75296 10.149897087659985" height="10.149897087659985" width="127.75296"><g transform="matrix(1,0,0,1,0,0)"><svg width="127.75296" viewBox="2.9 -32.25 414.06 32.9" height="10.149897087659985" data-palette-color="#f7fff7"><path d="M15.85 0.6Q15.1 0.5 12.68 0.25 10.25 0 8.65 0L8.65 0Q7.1 0 5.28 0.25 3.45 0.5 2.9 0.6L2.9 0.6 3.2-1.7Q5.5-2.15 6.3-3.03 7.1-3.9 7.1-6L7.1-6 7.15-27Q7.15-28.6 6.78-29.15 6.4-29.7 5.3-29.7L5.3-29.7Q4.8-29.7 4.3-29.65 3.8-29.6 3.6-29.6L3.6-29.6 3.5-29.8 3.85-32Q4.4-31.95 5.95-31.9 7.5-31.85 9.1-31.85L9.1-31.85Q11.25-31.85 13.55-31.93 15.85-32 16.7-32.05L16.7-32.05Q21.5-32.05 25.25-30.18 29-28.3 31.08-24.9 33.15-21.5 33.15-17.1L33.15-17.1Q33.15-12.2 30.85-8.15 28.55-4.1 24.6-1.75 20.65 0.6 15.85 0.6L15.85 0.6ZM13.25-29.6Q12.2-29.6 11.85-29.38 11.5-29.15 11.45-28.5L11.45-28.5Q10.7-9.25 10.7-6.55L10.7-6.55Q10.7-4.65 11.23-3.7 11.75-2.75 13.08-2.35 14.4-1.95 17-1.95L17-1.95Q22.4-1.95 25.5-5.68 28.6-9.4 28.6-15.9L28.6-15.9Q28.6-22.5 24.63-26.05 20.65-29.6 13.25-29.6L13.25-29.6ZM37.8 0.45L38.05-1.6Q39.95-1.95 40.6-2.63 41.25-3.3 41.25-4.95L41.25-4.95 41.3-20.85Q41.3-22.1 41-22.53 40.7-22.95 39.8-22.95L39.8-22.95 38.15-22.9 38.05-23.1 38.3-25Q38.6-25 39.92-24.95 41.25-24.9 43.4-24.9L43.4-24.9Q44.55-24.9 46.22-25.05 47.9-25.2 48.4-25.25L48.4-25.25 48.2-23.2Q46.55-23 46-22.58 45.45-22.15 45.35-21L45.35-21Q45.15-17 44.97-12.15 44.8-7.3 44.8-4.65L44.8-4.65Q44.8-3.05 45.15-2.5 45.5-1.95 46.55-1.95L46.55-1.95Q47.25-1.95 47.82-2 48.4-2.05 48.6-2.1L48.6-2.1 48.7-1.9 48.35 0.1Q47.75 0.1 46.1 0.05 44.45 0 42.8 0L42.8 0Q41.45 0 39.87 0.18 38.3 0.35 37.8 0.45L37.8 0.45ZM60.65 0.45Q58.9 0.45 57.42 0.15 55.95-0.15 55.07-0.48 54.2-0.8 54-0.9L54-0.9 53.75-1.35Q53.8-1.6 53.92-2.48 54.05-3.35 54.17-4.93 54.3-6.5 54.3-8.1L54.3-8.1 56.55-8.3Q56.55-5.6 56.97-4.28 57.4-2.95 58.45-2.45 59.5-1.95 61.65-1.95L61.65-1.95Q64.05-1.95 65.52-3 67-4.05 67-5.8L67-5.8Q67-6.95 66.17-7.83 65.34-8.7 64.27-9.3 63.2-9.9 60.85-11.05L60.85-11.05Q57.65-12.6 55.92-14.1 54.2-15.6 54.2-17.95L54.2-17.95Q54.2-20.05 55.47-21.75 56.75-23.45 59-24.4 61.25-25.35 64-25.35L64-25.35Q65.65-25.35 67.09-25.15 68.55-24.95 69.4-24.73 70.25-24.5 70.45-24.4L70.45-24.4 70.65-24.05Q70.55-23.5 70.2-21.58 69.84-19.65 69.7-17.45L69.7-17.45 67.75-17.25 67.45-17.45Q67.45-17.6 67.5-18.07 67.55-18.55 67.55-19.25L67.55-19.25Q67.55-21.2 66.52-21.98 65.5-22.75 62.9-22.75L62.9-22.75Q60.8-22.75 59.42-21.78 58.05-20.8 58.05-19.3L58.05-19.3Q58.05-17.8 59.42-16.75 60.8-15.7 63.6-14.35L63.6-14.35Q66.05-13.2 67.52-12.35 69-11.5 70.05-10.2 71.09-8.9 71.09-7.2L71.09-7.2Q71.09-4.95 69.77-3.23 68.45-1.5 66.07-0.53 63.7 0.45 60.65 0.45L60.65 0.45ZM88.34 0.45Q82.69 0.45 79.39-2.8 76.09-6.05 76.09-11.65L76.09-11.65Q76.09-15.6 77.92-18.73 79.74-21.85 83.02-23.6 86.29-25.35 90.44-25.35L90.44-25.35Q91.94-25.35 93.57-25.15 95.19-24.95 96.32-24.7 97.44-24.45 97.74-24.4L97.74-24.4 97.94-24.1Q97.89-23.85 97.69-22.93 97.49-22 97.24-20.5 96.99-19 96.89-17.3L96.89-17.3 94.39-17.15Q94.39-17.3 94.44-17.85 94.49-18.4 94.49-19.1L94.49-19.1Q94.49-22.6 88.89-22.6L88.89-22.6Q84.99-22.6 82.74-20.03 80.49-17.45 80.49-12.95L80.49-12.95Q80.49-7.95 82.87-5 85.24-2.05 89.24-2.05L89.24-2.05Q91.89-2.05 93.47-3.48 95.04-4.9 95.74-7.95L95.74-7.95 98.24-8.15Q98.09-7.55 97.72-5.45 97.34-3.35 97.19-1.5L97.19-1.5 96.89-1.1Q96.59-1 95.47-0.63 94.34-0.25 92.44 0.1 90.54 0.45 88.34 0.45L88.34 0.45ZM113.64 0.45Q110.24 0.45 107.62-1.05 104.99-2.55 103.57-5.3 102.14-8.05 102.14-11.65L102.14-11.65Q102.14-15.55 103.92-18.68 105.69-21.8 108.77-23.58 111.84-25.35 115.64-25.35L115.64-25.35Q119.09-25.35 121.74-23.85 124.39-22.35 125.84-19.63 127.29-16.9 127.29-13.3L127.29-13.3Q127.29-9.4 125.52-6.28 123.74-3.15 120.62-1.35 117.49 0.45 113.64 0.45L113.64 0.45ZM114.84-1.95Q118.49-1.95 120.74-4.58 122.99-7.2 122.99-11.55L122.99-11.55Q122.99-14.85 121.92-17.35 120.84-19.85 118.87-21.2 116.89-22.55 114.29-22.55L114.29-22.55Q110.74-22.55 108.57-19.95 106.39-17.35 106.39-13L106.39-13Q106.39-9.7 107.44-7.2 108.49-4.7 110.42-3.33 112.34-1.95 114.84-1.95L114.84-1.95ZM138.54 0.65Q137.94-1.4 135.81-8.13 133.69-14.85 131.74-20.65L131.74-20.65Q131.39-21.75 130.51-22.3 129.64-22.85 128.14-22.95L128.14-22.95 128.04-23.1 128.34-25Q128.89-25 130.34-24.95 131.79-24.9 133.19-24.9L133.19-24.9Q134.69-24.9 136.79-25.08 138.89-25.25 139.54-25.3L139.54-25.3 139.69-25 139.54-23.2Q137.34-23.05 136.66-22.75 135.99-22.45 135.99-21.65L135.99-21.65Q135.99-20.85 138.01-13.8 140.04-6.75 140.79-4.2L140.79-4.2 141.24-4.2Q142.99-8.4 145.31-14.6 147.64-20.8 147.64-21.6L147.64-21.6Q147.64-22.4 147.04-22.73 146.44-23.05 144.99-23.05L144.99-23.05 142.99-23.05 142.89-23.25 143.14-25.15Q143.69-25.1 145.51-25 147.34-24.9 149.04-24.9L149.04-24.9Q150.59-24.9 151.89-24.95 153.19-25 153.64-25L153.64-25 153.29-22.95Q152.09-22.9 151.61-22.53 151.14-22.15 150.69-21L150.69-21 142.24-0.2 138.54 0.65ZM156.79 0.4L157.04-1.7Q158.89-1.9 159.54-2.6 160.19-3.3 160.19-5L160.19-5 160.24-20.85Q160.24-22.1 159.94-22.53 159.64-22.95 158.74-22.95L158.74-22.95 157.39-22.9 157.29-23.1 157.59-25Q158.19-25 159.94-24.95 161.69-24.9 163.74-24.9L163.74-24.9Q172.09-24.9 176.09-25.35L176.09-25.35 176.24-25.1Q176.14-24.55 175.79-22.6 175.44-20.65 175.29-18.4L175.29-18.4 172.89-18.2Q172.89-18.4 172.94-18.88 172.99-19.35 172.99-19.85L172.99-19.85Q172.99-21.15 172.61-21.68 172.24-22.2 171.06-22.38 169.89-22.55 166.99-22.55L166.99-22.55Q165.64-22.55 165.14-22.48 164.64-22.4 164.49-22.13 164.34-21.85 164.29-21.1L164.29-21.1 163.99-14 168.09-13.95Q168.99-13.95 170.74-14.13 172.49-14.3 173.04-14.35L173.04-14.35 173.24-14.1 172.64-11.5Q172.09-11.5 170.46-11.55 168.84-11.6 167.04-11.6L167.04-11.6Q165.64-11.6 163.89-11.35L163.89-11.35Q163.74-7.55 163.74-4.5L163.74-4.5Q163.74-3.35 163.91-2.9 164.09-2.45 164.71-2.3 165.34-2.15 166.79-2.15L166.79-2.15Q170.04-2.15 171.44-2.45 172.84-2.75 173.41-3.68 173.99-4.6 174.34-6.85L174.34-6.85 176.54-7.05 176.74-6.8Q176.59-6.25 176.21-4.23 175.84-2.2 175.64 0L175.64 0 175.34 0.25Q173.99 0.2 169.74 0.1 165.49 0 162.84 0L162.84 0Q160.79 0 159.04 0.18 157.29 0.35 156.79 0.4L156.79 0.4ZM201.03 0.6Q199.93 0.6 198.78-0.38 197.63-1.35 196.68-3.05L196.68-3.05 192.48-10.4 189.23-10.4 189.13-5.05Q189.13-3.6 189.33-2.98 189.53-2.35 190.11-2.15 190.68-1.95 192.08-1.9L192.08-1.9 192.18-1.75 191.78 0.15Q191.18 0.1 189.61 0.08 188.03 0.05 186.43 0.05L186.43 0.05Q184.88 0.05 183.73 0.1 182.58 0.15 182.18 0.2L182.18 0.2 182.53-1.85Q184.38-2.1 184.98-2.7 185.58-3.3 185.58-4.95L185.58-4.95 185.63-20.9Q185.63-22.1 185.33-22.53 185.03-22.95 184.18-22.95L184.18-22.95 182.78-22.9 182.63-23.1 182.93-25Q183.43-25 184.83-24.95 186.23-24.9 187.63-24.9L187.63-24.9Q189.08-24.9 190.73-24.98 192.38-25.05 192.98-25.05L192.98-25.05Q197.03-25.05 199.33-23.38 201.63-21.7 201.63-18.75L201.63-18.75Q201.63-16.45 200.08-14.5 198.53-12.55 195.73-11.3L195.73-11.3 199.98-4.9Q201.18-3.1 202.28-2.35 203.38-1.6 204.93-1.6L204.93-1.6 205.13-1.35 204.88 0.2 201.03 0.6ZM193.38-12.6Q194.33-13 195.06-13.38 195.78-13.75 196.68-14.95 197.58-16.15 197.58-18.05L197.58-18.05Q197.58-22.9 190.43-22.9L190.43-22.9Q190.03-22.9 189.88-22.73 189.73-22.55 189.73-22L189.73-22Q189.33-15.9 189.33-13L189.33-13 193.38-12.6ZM223.03 0.6L223.33-1.7Q225.13-2.05 225.93-2.6 226.73-3.15 226.98-4.1 227.23-5.05 227.23-7.1L227.23-7.1 227.23-9.3Q227.23-10.85 226.93-12.03 226.63-13.2 225.78-14.95L225.78-14.95 221.28-24.1Q219.98-26.75 219.43-27.68 218.88-28.6 217.88-29.15 216.88-29.7 214.98-29.85L214.98-29.85 214.88-30.05 215.18-32Q215.73-31.95 217.28-31.9 218.83-31.85 220.68-31.85L220.68-31.85Q222.43-31.85 224.75-32.02 227.08-32.2 227.78-32.25L227.78-32.25 227.93-31.9 227.78-30.15Q225.53-29.95 224.75-29.58 223.98-29.2 223.98-28.35L223.98-28.35Q223.98-27.7 225.23-24.8 226.48-21.9 227.8-19.1 229.13-16.3 229.58-15.45L229.58-15.45 229.83-15.45 235.53-26.05Q236.33-27.5 236.33-28.55L236.33-28.55Q236.33-29.85 233.18-30.05L233.18-30.05 233.08-30.25 233.38-32.2Q233.98-32.15 235.88-32 237.78-31.85 238.93-31.85L238.93-31.85Q240.13-31.85 241.6-31.93 243.08-32 243.53-32.05L243.53-32.05 243.73-31.7 243.43-29.85Q241.83-29.55 240.93-29.03 240.03-28.5 239.35-27.53 238.68-26.55 237.38-24.25L237.38-24.25Q237.08-23.65 236.88-23.35L236.88-23.35 231.88-14.55Q231.23-13.4 231.05-11.95 230.88-10.5 230.78-6.7L230.78-6.7 230.78-5.6Q230.73-3.65 231.2-2.93 231.68-2.2 232.98-2.2L232.98-2.2Q233.78-2.2 234.48-2.25 235.18-2.3 235.43-2.35L235.43-2.35 235.53-2.15 235.08 0.15Q234.38 0.1 232.5 0.05 230.63 0 228.73 0L228.73 0Q227.18 0 225.38 0.25 223.58 0.5 223.03 0.6L223.03 0.6ZM255.28 0.45Q251.88 0.45 249.25-1.05 246.63-2.55 245.2-5.3 243.78-8.05 243.78-11.65L243.78-11.65Q243.78-15.55 245.55-18.68 247.33-21.8 250.4-23.58 253.48-25.35 257.28-25.35L257.28-25.35Q260.73-25.35 263.38-23.85 266.03-22.35 267.48-19.63 268.93-16.9 268.93-13.3L268.93-13.3Q268.93-9.4 267.15-6.28 265.38-3.15 262.25-1.35 259.13 0.45 255.28 0.45L255.28 0.45ZM256.48-1.95Q260.13-1.95 262.38-4.58 264.63-7.2 264.63-11.55L264.63-11.55Q264.63-14.85 263.55-17.35 262.48-19.85 260.5-21.2 258.53-22.55 255.93-22.55L255.93-22.55Q252.38-22.55 250.2-19.95 248.03-17.35 248.03-13L248.03-13Q248.03-9.7 249.08-7.2 250.13-4.7 252.05-3.33 253.98-1.95 256.48-1.95L256.48-1.95ZM284.82 0.45Q280.37 0.45 278.05-1.75 275.72-3.95 275.72-8.1L275.72-8.1 275.72-20.85Q275.72-22.1 275.42-22.53 275.12-22.95 274.22-22.95L274.22-22.95 272.87-22.9 272.77-23.05 273.07-25Q273.62-25 275.07-24.95 276.52-24.9 278.02-24.9L278.02-24.9Q279.12-24.9 280.57-25.03 282.02-25.15 282.47-25.2L282.47-25.2 282.27-23.2Q280.82-23 280.32-22.55 279.82-22.1 279.72-21L279.72-21 279.42-9.55Q279.42-6 281.07-4.08 282.72-2.15 285.82-2.15L285.82-2.15Q288.97-2.15 290.6-3.73 292.22-5.3 292.22-8.3L292.22-8.3Q292.22-11.4 292.15-15.33 292.07-19.25 292.02-20.85L292.02-20.85Q291.92-22.2 291.67-22.58 291.42-22.95 290.57-22.95L290.57-22.95 288.87-22.9 288.82-23.05 289.12-25Q289.62-25 291-24.95 292.37-24.9 293.77-24.9L293.77-24.9Q294.92-24.9 296.25-25.03 297.57-25.15 297.97-25.2L297.97-25.2 297.82-23.2Q296.07-22.95 295.57-22.55 295.07-22.15 295.07-21.05L295.07-21.05 295.07-8.25Q295.07-4.1 292.4-1.83 289.72 0.45 284.82 0.45L284.82 0.45ZM321.27 0.6Q320.17 0.6 319.02-0.38 317.87-1.35 316.92-3.05L316.92-3.05 312.72-10.4 309.47-10.4 309.37-5.05Q309.37-3.6 309.57-2.98 309.77-2.35 310.35-2.15 310.92-1.95 312.32-1.9L312.32-1.9 312.42-1.75 312.02 0.15Q311.42 0.1 309.85 0.08 308.27 0.05 306.67 0.05L306.67 0.05Q305.12 0.05 303.97 0.1 302.82 0.15 302.42 0.2L302.42 0.2 302.77-1.85Q304.62-2.1 305.22-2.7 305.82-3.3 305.82-4.95L305.82-4.95 305.87-20.9Q305.87-22.1 305.57-22.53 305.27-22.95 304.42-22.95L304.42-22.95 303.02-22.9 302.87-23.1 303.17-25Q303.67-25 305.07-24.95 306.47-24.9 307.87-24.9L307.87-24.9Q309.32-24.9 310.97-24.98 312.62-25.05 313.22-25.05L313.22-25.05Q317.27-25.05 319.57-23.38 321.87-21.7 321.87-18.75L321.87-18.75Q321.87-16.45 320.32-14.5 318.77-12.55 315.97-11.3L315.97-11.3 320.22-4.9Q321.42-3.1 322.52-2.35 323.62-1.6 325.17-1.6L325.17-1.6 325.37-1.35 325.12 0.2 321.27 0.6ZM313.62-12.6Q314.57-13 315.3-13.38 316.02-13.75 316.92-14.95 317.82-16.15 317.82-18.05L317.82-18.05Q317.82-22.9 310.67-22.9L310.67-22.9Q310.27-22.9 310.12-22.73 309.97-22.55 309.97-22L309.97-22Q309.57-15.9 309.57-13L309.57-13 313.62-12.6ZM335.72 0.45Q333.97 0.45 332.49 0.15 331.02-0.15 330.14-0.48 329.27-0.8 329.07-0.9L329.07-0.9 328.82-1.35Q328.87-1.6 328.99-2.48 329.12-3.35 329.24-4.93 329.37-6.5 329.37-8.1L329.37-8.1 331.62-8.3Q331.62-5.6 332.04-4.28 332.47-2.95 333.52-2.45 334.57-1.95 336.72-1.95L336.72-1.95Q339.12-1.95 340.59-3 342.07-4.05 342.07-5.8L342.07-5.8Q342.07-6.95 341.24-7.83 340.42-8.7 339.34-9.3 338.27-9.9 335.92-11.05L335.92-11.05Q332.72-12.6 330.99-14.1 329.27-15.6 329.27-17.95L329.27-17.95Q329.27-20.05 330.54-21.75 331.82-23.45 334.07-24.4 336.32-25.35 339.07-25.35L339.07-25.35Q340.72-25.35 342.17-25.15 343.62-24.95 344.47-24.73 345.32-24.5 345.52-24.4L345.52-24.4 345.72-24.05Q345.62-23.5 345.27-21.58 344.92-19.65 344.77-17.45L344.77-17.45 342.82-17.25 342.52-17.45Q342.52-17.6 342.57-18.07 342.62-18.55 342.62-19.25L342.62-19.25Q342.62-21.2 341.59-21.98 340.57-22.75 337.97-22.75L337.97-22.75Q335.87-22.75 334.49-21.78 333.12-20.8 333.12-19.3L333.12-19.3Q333.12-17.8 334.49-16.75 335.87-15.7 338.67-14.35L338.67-14.35Q341.12-13.2 342.59-12.35 344.07-11.5 345.12-10.2 346.17-8.9 346.17-7.2L346.17-7.2Q346.17-4.95 344.84-3.23 343.52-1.5 341.14-0.53 338.77 0.45 335.72 0.45L335.72 0.45ZM351.82 0.4L352.07-1.7Q353.92-1.9 354.57-2.6 355.22-3.3 355.22-5L355.22-5 355.27-20.85Q355.27-22.1 354.97-22.53 354.67-22.95 353.77-22.95L353.77-22.95 352.42-22.9 352.32-23.1 352.62-25Q353.22-25 354.97-24.95 356.72-24.9 358.77-24.9L358.77-24.9Q367.12-24.9 371.12-25.35L371.12-25.35 371.27-25.1Q371.17-24.55 370.82-22.6 370.47-20.65 370.32-18.4L370.32-18.4 367.92-18.2Q367.92-18.4 367.97-18.88 368.02-19.35 368.02-19.85L368.02-19.85Q368.02-21.15 367.64-21.68 367.27-22.2 366.09-22.38 364.92-22.55 362.02-22.55L362.02-22.55Q360.67-22.55 360.17-22.48 359.67-22.4 359.52-22.13 359.37-21.85 359.32-21.1L359.32-21.1 359.02-14 363.12-13.95Q364.02-13.95 365.77-14.13 367.52-14.3 368.07-14.35L368.07-14.35 368.27-14.1 367.67-11.5Q367.12-11.5 365.49-11.55 363.87-11.6 362.07-11.6L362.07-11.6Q360.67-11.6 358.92-11.35L358.92-11.35Q358.77-7.55 358.77-4.5L358.77-4.5Q358.77-3.35 358.94-2.9 359.12-2.45 359.74-2.3 360.37-2.15 361.82-2.15L361.82-2.15Q365.07-2.15 366.47-2.45 367.87-2.75 368.44-3.68 369.02-4.6 369.37-6.85L369.37-6.85 371.57-7.05 371.77-6.8Q371.62-6.25 371.24-4.23 370.87-2.2 370.67 0L370.67 0 370.37 0.25Q369.02 0.2 364.77 0.1 360.52 0 357.87 0L357.87 0Q355.82 0 354.07 0.18 352.32 0.35 351.82 0.4L351.82 0.4ZM377.56 0.4L377.86-1.7Q379.46-1.95 380.04-2.63 380.61-3.3 380.61-5L380.61-5 380.66-20.85Q380.66-22.1 380.36-22.53 380.06-22.95 379.16-22.95L379.16-22.95 377.81-22.9 377.66-23.1 377.96-25Q378.21-25 379.46-24.95 380.71-24.9 382.81-24.9L382.81-24.9Q383.91-24.9 385.54-25.05 387.16-25.2 387.66-25.25L387.66-25.25 387.46-23.15Q386.11-23 385.56-22.68 385.01-22.35 384.91-21.85 384.81-21.35 384.66-19.8L384.66-19.8Q384.16-13.1 384.16-4.95L384.16-4.95Q384.16-3.7 384.39-3.13 384.61-2.55 385.29-2.35 385.96-2.15 387.41-2.15L387.41-2.15Q389.81-2.15 390.94-2.55 392.06-2.95 392.64-4.13 393.21-5.3 393.66-7.85L393.66-7.85 395.86-8.1 396.01-7.8Q395.91-7.15 395.54-4.83 395.16-2.5 394.86 0.05L394.86 0.05 394.61 0.35Q393.46 0.3 389.74 0.15 386.01 0 383.46 0L383.46 0Q381.46 0 379.74 0.18 378.01 0.35 377.56 0.4L377.56 0.4ZM398.31 0.45L398.56-1.6Q400.46-1.95 401.09-2.63 401.71-3.3 401.71-5L401.71-5 401.76-20.85Q401.76-22.1 401.46-22.53 401.16-22.95 400.26-22.95L400.26-22.95 398.91-22.9 398.81-23.1 399.11-25Q399.71-25 401.46-24.95 403.21-24.9 405.26-24.9L405.26-24.9Q413.01-24.9 416.76-25.35L416.76-25.35 416.96-25.1Q416.86-24.55 416.51-22.55 416.16-20.55 416.01-18.3L416.01-18.3 413.61-18.15Q413.61-18.35 413.66-18.85 413.71-19.35 413.71-19.85L413.71-19.85Q413.71-21.15 413.39-21.68 413.06-22.2 412.01-22.38 410.96-22.55 408.51-22.55L408.51-22.55Q407.16-22.55 406.66-22.48 406.16-22.4 406.01-22.13 405.86-21.85 405.81-21.1L405.81-21.1 405.46-13.35 409.61-13.3Q410.41-13.3 411.91-13.48 413.41-13.65 413.91-13.7L413.91-13.7 414.11-13.45 413.56-10.8Q413.06-10.8 411.61-10.85 410.16-10.9 408.56-10.9L408.56-10.9Q407.16-10.9 405.41-10.65L405.41-10.65 405.26-4.75Q405.26-3.2 405.61-2.68 405.96-2.15 407.06-2.15L407.06-2.15Q407.86-2.15 408.71-2.23 409.56-2.3 409.86-2.3L409.86-2.3 410.01-2.05 409.66 0.15Q409.01 0.1 407.19 0.05 405.36 0 403.46 0L403.46 0Q402.01 0 400.41 0.18 398.81 0.35 398.31 0.45L398.31 0.45Z" opacity="1" transform="matrix(1,0,0,1,0,0)" fill="#ffffff" class="slogan-text-1" data-fill-palette-color="secondary" id="text-1"></path></svg></g></svg></g></svg></g></svg></g><g><svg viewBox="0 0 205.09994487765672 138.55303864892952" height="138.55303864892952" width="205.09994487765672"><g><svg xmlns="http://www.w3.org/2000/svg" xmlns:xlink="http://www.w3.org/1999/xlink" version="1.1" x="0" y="0" viewBox="2.2282500000000005 16.10619105753579 85.54325 57.78781281718525" enable-background="new 0 0 90 90" xml:space="preserve" height="138.55303864892952" width="205.09994487765672" class="icon-icon-0" data-fill-palette-color="accent" id="icon-0"><g fill="#fc06e2" data-fill-palette-color="accent"><path d="M34.667 34.604C34.667 31.854 36.616 30.729 38.997 32.104L57.007 42.5C59.389 43.875 59.389 46.125 57.007 47.5L38.997 57.896C36.616 59.271 34.667 58.146 34.667 55.396z" fill="#ffffff" data-fill-palette-color="accent"></path></g><path fill="#ffffff" d="M64.866 61.839A2.386 2.386 0 0 1 63.178 57.762C70.213 50.725 70.213 39.276 63.178 32.239A2.388 2.388 0 1 1 66.555 28.861C75.455 37.761 75.455 52.24 66.555 61.14A2.38 2.38 0 0 1 64.866 61.839" data-fill-palette-color="accent"></path><path fill="#ffffff" d="M73.956 73.894A3.184 3.184 0 0 1 71.704 68.457C84.638 55.524 84.638 34.478 71.704 21.543A3.184 3.184 0 1 1 76.208 17.039C91.626 32.457 91.626 57.543 76.208 72.96A3.17 3.17 0 0 1 73.956 73.894" data-fill-palette-color="accent"></path><path fill="#ffffff" d="M25.133 28.162A2.387 2.387 0 0 1 26.822 32.239C19.785 39.276 19.785 50.725 26.822 57.763A2.387 2.387 0 1 1 23.444 61.14C14.545 52.241 14.545 37.761 23.444 28.862A2.38 2.38 0 0 1 25.133 28.162" data-fill-palette-color="accent"></path><path fill="#ffffff" d="M16.043 16.107A3.184 3.184 0 0 1 18.295 21.544C5.361 34.477 5.361 55.523 18.295 68.458A3.186 3.186 0 0 1 13.791 72.962C-1.626 57.543-1.626 32.458 13.791 17.041A3.17 3.17 0 0 1 16.043 16.107" data-fill-palette-color="accent"></path></svg></g></svg></g></svg></g><defs></defs></svg><rect width="395.52" height="84.38378344268968" fill="none" stroke="none" visibility="hidden"></rect></g></svg></g></svg>